<svg width="365" height="387" viewBox="0 0 365 387" fill="none" xmlns="http://www.w3.org/2000/svg">
<path d="M182.5 0C185.995 0 189.49 0.75957 192.681 2.20312L335.745 62.9082C352.46 69.974 364.919 86.4613 364.843 106.367C364.464 181.736 333.466 319.634 202.558 382.314C189.87 388.393 175.13 388.393 162.442 382.314C31.5344 319.634 0.535807 181.736 0.155924 106.367C0.0799482 86.4613 12.5407 69.974 29.2555 62.9082L172.395 2.20312C175.51 0.759652 179.005 5.09106e-05 182.5 0ZM182.5 82C174.701 82.0002 168.4 88.2843 168.4 96.0625V111.575C161.659 112.498 155.225 114.08 149.365 116.409C135.045 122.078 122.443 132.977 119.27 149.764C117.508 159.124 118.257 167.913 121.958 175.779C125.615 183.514 131.475 189.095 137.732 193.182C149.188 200.652 164.611 204.739 177.169 208.079L178.402 208.387C192.722 212.166 203.782 215.242 211.008 219.944C214.269 222.098 215.9 224.031 216.737 225.789C217.486 227.415 218.146 230.096 217.309 234.754C216.34 240.027 212.947 244.422 205.501 247.454C197.658 250.662 186.069 251.849 172.013 249.783C163.245 248.421 148.088 244.378 138.879 240.291C131.785 237.127 123.456 240.335 120.284 247.41C117.111 254.485 120.328 262.791 127.422 265.955C139.318 271.228 156.988 275.843 167.739 277.513H167.827C168.003 277.557 168.224 277.557 168.4 277.601V292.938C168.4 300.716 174.701 307 182.5 307C190.299 307 196.6 300.716 196.6 292.938V278.348C203.562 277.557 210.127 275.975 216.164 273.514C230.484 267.669 242.029 256.507 245.069 239.808C246.787 230.447 245.994 221.658 242.249 213.792C238.592 206.058 232.687 200.521 226.43 196.434C214.974 188.963 199.552 184.92 186.95 181.58L185.673 181.229C171.396 177.449 160.381 174.373 153.199 169.671C149.982 167.518 148.351 165.584 147.558 163.87C146.809 162.244 146.149 159.607 147.03 154.905C147.823 150.599 151.26 145.94 159.808 142.557C168.356 139.173 180.518 137.811 194.309 139.832L215.239 143.655C222.862 145.061 230.22 139.964 231.63 132.361C233.04 124.759 227.972 117.42 220.305 116.014L199.156 112.146C198.98 112.103 198.847 112.103 198.671 112.059C197.966 111.927 197.305 111.839 196.6 111.751V96.0625C196.6 88.2842 190.299 82 182.5 82Z" fill="#03318B"/>
</svg>
