<svg width="512" height="512" viewBox="0 0 512 512" fill="none" xmlns="http://www.w3.org/2000/svg">
<path d="M61 360.318C61 373.229 66.1361 385.612 75.2785 394.741C84.4209 403.871 96.8207 409 109.75 409H402.25C415.179 409 427.579 403.871 436.721 394.741C445.864 385.612 451 373.229 451 360.318V226.443H61V360.318ZM118.455 294.25C118.455 287.333 121.207 280.7 126.105 275.809C131.002 270.918 137.645 268.17 144.571 268.17H186.357C193.284 268.17 199.926 270.918 204.824 275.809C209.722 280.7 212.473 287.333 212.473 294.25V311.636C212.473 318.553 209.722 325.187 204.824 330.077C199.926 334.968 193.284 337.716 186.357 337.716H144.571C137.645 337.716 131.002 334.968 126.105 330.077C121.207 325.187 118.455 318.553 118.455 311.636V294.25ZM402.25 103H109.75C96.8207 103 84.4209 108.129 75.2785 117.259C66.1361 126.388 61 138.771 61 151.682V174.284H451V151.682C451 138.771 445.864 126.388 436.721 117.259C427.579 108.129 415.179 103 402.25 103Z" fill="black"/>
</svg>
