<svg width="512" height="512" viewBox="0 0 512 512" fill="none" xmlns="http://www.w3.org/2000/svg">
<path d="M256 304C282.51 304 304 282.51 304 256C304 229.49 282.51 208 256 208C229.49 208 208 229.49 208 256C208 282.51 229.49 304 256 304Z" fill="black"/>
<path d="M399.564 285.461L399.25 285.206L378.116 268.635C376.777 267.576 375.709 266.215 374.999 264.664C374.289 263.112 373.957 261.414 374.031 259.709V251.969C373.964 250.275 374.3 248.59 375.011 247.051C375.722 245.512 376.789 244.164 378.122 243.118L399.25 226.539L399.564 226.285C402.823 223.571 405.009 219.786 405.733 215.608C406.457 211.43 405.671 207.131 403.515 203.479L374.915 153.998C374.882 153.952 374.853 153.902 374.828 153.851C372.661 150.25 369.301 147.521 365.331 146.139C361.362 144.757 357.033 144.809 353.098 146.285L352.864 146.372L328.02 156.369C326.452 157.003 324.756 157.255 323.071 157.105C321.386 156.955 319.761 156.406 318.33 155.505C316.134 154.121 313.902 152.813 311.634 151.581C310.163 150.784 308.901 149.652 307.948 148.278C306.996 146.903 306.379 145.324 306.149 143.667L302.406 117.159L302.326 116.677C301.511 112.571 299.307 108.871 296.085 106.198C292.864 103.525 288.82 102.043 284.634 102H227.366C223.121 102.014 219.017 103.525 215.777 106.267C212.537 109.01 210.368 112.807 209.654 116.992L209.594 117.367L205.864 143.928C205.635 145.58 205.024 147.156 204.079 148.53C203.133 149.904 201.881 151.038 200.42 151.842C198.145 153.067 195.912 154.367 193.723 155.739C192.295 156.635 190.674 157.179 188.994 157.327C187.314 157.475 185.624 157.222 184.06 156.59L159.197 146.546L158.962 146.452C155.021 144.975 150.687 144.925 146.713 146.312C142.739 147.699 139.377 150.436 137.212 154.045L137.125 154.193L108.485 203.707C106.326 207.362 105.538 211.666 106.262 215.849C106.986 220.032 109.174 223.821 112.436 226.539L112.75 226.794L133.884 243.365C135.223 244.424 136.291 245.785 137.001 247.336C137.711 248.888 138.043 250.586 137.969 252.291V260.031C138.036 261.725 137.7 263.41 136.989 264.949C136.278 266.488 135.211 267.836 133.877 268.882L112.75 285.461L112.436 285.715C109.177 288.429 106.991 292.214 106.267 296.392C105.543 300.57 106.329 304.869 108.485 308.521L137.085 358.002C137.118 358.048 137.147 358.098 137.172 358.149C139.339 361.75 142.699 364.479 146.669 365.861C150.638 367.243 154.967 367.191 158.902 365.715L159.136 365.628L183.96 355.631C185.528 354.997 187.224 354.745 188.909 354.895C190.594 355.045 192.218 355.594 193.65 356.495C195.846 357.883 198.078 359.191 200.346 360.419C201.816 361.216 203.079 362.348 204.032 363.722C204.984 365.097 205.6 366.676 205.83 368.333L209.554 394.841L209.634 395.323C210.45 399.436 212.66 403.141 215.89 405.814C219.12 408.488 223.173 409.966 227.366 410H284.634C288.879 409.986 292.983 408.475 296.223 405.733C299.463 402.99 301.631 399.193 302.346 395.008L302.406 394.633L306.136 368.072C306.368 366.417 306.985 364.839 307.936 363.465C308.887 362.091 310.146 360.958 311.614 360.158C313.904 358.926 316.14 357.62 318.31 356.261C319.739 355.365 321.359 354.821 323.039 354.673C324.719 354.525 326.41 354.778 327.973 355.41L352.837 365.42L353.071 365.514C357.012 366.995 361.347 367.046 365.322 365.658C369.297 364.271 372.658 361.533 374.821 357.921C374.848 357.871 374.877 357.822 374.908 357.774L403.508 308.3C405.671 304.645 406.462 300.339 405.739 296.155C405.017 291.97 402.828 288.179 399.564 285.461ZM309.511 258.518C309.023 268.886 305.533 278.89 299.465 287.312C293.397 295.734 285.012 302.212 275.33 305.958C265.648 309.703 255.086 310.556 244.929 308.411C234.771 306.266 225.456 301.216 218.116 293.875C210.776 286.535 205.726 277.22 203.582 267.064C201.438 256.908 202.292 246.347 206.039 236.667C209.786 226.986 216.266 218.603 224.69 212.537C233.114 206.47 243.119 202.981 253.489 202.495C260.934 202.167 268.365 203.392 275.311 206.092C282.257 208.791 288.565 212.906 293.834 218.175C299.103 223.444 303.218 229.752 305.917 236.698C308.616 243.643 309.84 251.074 309.511 258.518Z" fill="black"/>
</svg>
