<svg width="512" height="512" viewBox="0 0 512 512" fill="none" xmlns="http://www.w3.org/2000/svg">
<path d="M124.429 129.907H386.571C389.634 129.906 392.693 130.1 395.73 130.489C394.7 123.255 392.218 116.304 388.432 110.056C384.647 103.807 379.636 98.3912 373.703 94.1338C367.769 89.8764 361.036 86.8659 353.909 85.2837C346.782 83.7016 339.409 83.5806 332.234 84.928L116.646 121.772H116.4C102.868 124.363 90.8338 132.027 82.756 143.2C94.926 134.535 109.494 129.888 124.429 129.907ZM386.571 149.588H124.429C110.528 149.603 97.2017 155.137 87.3727 164.976C77.5438 174.816 72.0152 188.156 72 202.07V359.518C72.0152 373.432 77.5438 386.772 87.3727 396.611C97.2017 406.451 110.528 411.985 124.429 412H386.571C400.472 411.985 413.798 406.451 423.627 396.611C433.456 386.772 438.985 373.432 439 359.518V202.07C438.985 188.156 433.456 174.816 423.627 164.976C413.798 155.137 400.472 149.603 386.571 149.588ZM347.66 307.035C342.475 307.035 337.407 305.496 333.096 302.613C328.785 299.729 325.425 295.631 323.441 290.836C321.457 286.041 320.938 280.765 321.949 275.675C322.96 270.584 325.457 265.909 329.123 262.239C332.789 258.569 337.46 256.07 342.545 255.057C347.631 254.044 352.901 254.564 357.691 256.55C362.481 258.536 366.576 261.9 369.456 266.215C372.336 270.53 373.874 275.604 373.874 280.794C373.874 287.754 371.112 294.428 366.196 299.349C361.28 304.271 354.612 307.035 347.66 307.035Z" fill="black"/>
</svg>
